<svg xmlns="http://www.w3.org/2000/svg" width="1920" height="157.001" viewBox="0 0 1920 157.001">
  <g id="Component_2_1" data-name="Component 2 – 1" transform="translate(0 0)">
    <path id="Exclusion_1" data-name="Exclusion 1" d="M1920-1052H0v-157c.213.043,23.94,4.864,67.912,11.986,25.776,4.175,53.343,8.309,81.934,12.286,35.734,4.971,73.178,9.709,111.291,14.084,97.01,11.135,198.878,20.007,302.775,26.37,61.69,3.778,124.789,6.7,187.542,8.69,69.033,2.187,139.356,3.3,209.018,3.3s139.971-1.109,208.977-3.3c62.729-1.988,125.791-4.912,187.435-8.69,103.819-6.363,205.578-15.235,302.451-26.37,38.06-4.375,75.446-9.114,111.118-14.084,28.541-3.977,56.057-8.111,81.783-12.286,43.606-7.078,67.528-11.938,67.765-11.986v157Z" transform="translate(0 1209)" fill="#18181a"/>
  </g>
</svg>
