<svg id="Component_3_1" data-name="Component 3 – 1" xmlns="http://www.w3.org/2000/svg" width="1920" height="81.999" viewBox="0 0 1920 81.999">
  <path id="Subtraction_3" data-name="Subtraction 3" d="M.5-1127H0v-82l.01,0c1,.2,25.03,5.039,67.9,11.984,25.732,4.168,53.3,8.3,81.933,12.286,35.777,4.975,73.221,9.714,111.292,14.084,97.024,11.135,198.892,20.008,302.774,26.37,61.7,3.778,124.794,6.7,187.542,8.69,69.027,2.187,139.351,3.3,209.018,3.3s139.977-1.109,208.977-3.3c62.7-1.988,125.761-4.912,187.434-8.69,103.806-6.362,205.565-15.234,302.451-26.37,38.019-4.37,75.4-9.109,111.118-14.084,28.577-3.982,56.092-8.116,81.783-12.286,42.936-6.969,66.751-11.781,67.744-11.983l.021,0v81h-22v.5H.5v.5Z" transform="translate(0 1209)" fill="#18181a"/>
</svg>
